<mxfile host="app.diagrams.net" modified="2023-09-01T08:13:23.095Z" agent="Mozilla/5.0 (Windows NT 10.0; Win64; x64; rv:109.0) Gecko/20100101 Firefox/116.0" etag="QYPbDdJaozaI5zpSUkwI" version="21.7.1" type="device">
  <diagram name="Page-1" id="hw4ITenHUo8CY99xQ9TH">
    <mxGraphModel dx="1007" dy="608" grid="1" gridSize="10" guides="1" tooltips="1" connect="1" arrows="1" fold="1" page="1" pageScale="1" pageWidth="850" pageHeight="1100" math="0" shadow="0">
      <root>
        <mxCell id="0" />
        <mxCell id="1" parent="0" />
        <mxCell id="UaTDb0YEhkHOUNa2XtW7-6" value="reshapeCallback" style="rounded=1;whiteSpace=wrap;html=1;align=center;verticalAlign=top;fillColor=#d5e8d4;strokeColor=#82b366;" vertex="1" parent="1">
          <mxGeometry x="180" y="370" width="170" height="100" as="geometry" />
        </mxCell>
        <mxCell id="UaTDb0YEhkHOUNa2XtW7-5" value="keyboardCallback" style="rounded=1;whiteSpace=wrap;html=1;align=center;verticalAlign=top;fillColor=#d5e8d4;strokeColor=#82b366;" vertex="1" parent="1">
          <mxGeometry x="180" y="260" width="170" height="100" as="geometry" />
        </mxCell>
        <mxCell id="UaTDb0YEhkHOUNa2XtW7-4" value="&lt;div&gt;mouseCallback&lt;/div&gt;" style="rounded=1;whiteSpace=wrap;html=1;align=center;verticalAlign=top;fillColor=#d5e8d4;strokeColor=#82b366;" vertex="1" parent="1">
          <mxGeometry x="180" y="150" width="170" height="100" as="geometry" />
        </mxCell>
        <mxCell id="UaTDb0YEhkHOUNa2XtW7-8" style="edgeStyle=orthogonalEdgeStyle;rounded=0;orthogonalLoop=1;jettySize=auto;html=1;" edge="1" parent="1" source="UaTDb0YEhkHOUNa2XtW7-1" target="UaTDb0YEhkHOUNa2XtW7-7">
          <mxGeometry relative="1" as="geometry" />
        </mxCell>
        <mxCell id="UaTDb0YEhkHOUNa2XtW7-1" value="glutPostRedisplay" style="rounded=1;whiteSpace=wrap;html=1;" vertex="1" parent="1">
          <mxGeometry x="200" y="190" width="130" height="40" as="geometry" />
        </mxCell>
        <mxCell id="UaTDb0YEhkHOUNa2XtW7-9" style="edgeStyle=orthogonalEdgeStyle;rounded=0;orthogonalLoop=1;jettySize=auto;html=1;" edge="1" parent="1" source="UaTDb0YEhkHOUNa2XtW7-2" target="UaTDb0YEhkHOUNa2XtW7-7">
          <mxGeometry relative="1" as="geometry">
            <Array as="points">
              <mxPoint x="450" y="300" />
            </Array>
          </mxGeometry>
        </mxCell>
        <mxCell id="UaTDb0YEhkHOUNa2XtW7-2" value="glutPostRedisplay" style="rounded=1;whiteSpace=wrap;html=1;" vertex="1" parent="1">
          <mxGeometry x="200" y="300" width="130" height="40" as="geometry" />
        </mxCell>
        <mxCell id="UaTDb0YEhkHOUNa2XtW7-10" style="edgeStyle=orthogonalEdgeStyle;rounded=0;orthogonalLoop=1;jettySize=auto;html=1;" edge="1" parent="1" source="UaTDb0YEhkHOUNa2XtW7-3" target="UaTDb0YEhkHOUNa2XtW7-7">
          <mxGeometry relative="1" as="geometry" />
        </mxCell>
        <mxCell id="UaTDb0YEhkHOUNa2XtW7-3" value="glutPostRedisplay" style="rounded=1;whiteSpace=wrap;html=1;" vertex="1" parent="1">
          <mxGeometry x="200" y="410" width="130" height="40" as="geometry" />
        </mxCell>
        <mxCell id="UaTDb0YEhkHOUNa2XtW7-7" value="&lt;div&gt;REDISPLAY&lt;/div&gt;&lt;div&gt;&lt;b&gt;&lt;font style=&quot;font-size: 19px;&quot;&gt;1&lt;/font&gt;&lt;/b&gt;&lt;br&gt;&lt;/div&gt;" style="ellipse;whiteSpace=wrap;html=1;aspect=fixed;" vertex="1" parent="1">
          <mxGeometry x="425" y="280" width="80" height="80" as="geometry" />
        </mxCell>
        <mxCell id="UaTDb0YEhkHOUNa2XtW7-11" value="&lt;div&gt;glutMainLoop&lt;/div&gt;" style="rounded=1;whiteSpace=wrap;html=1;align=center;verticalAlign=top;fillColor=#f8cecc;strokeColor=#b85450;" vertex="1" parent="1">
          <mxGeometry x="580" y="100" width="170" height="400" as="geometry" />
        </mxCell>
        <mxCell id="UaTDb0YEhkHOUNa2XtW7-16" style="edgeStyle=orthogonalEdgeStyle;rounded=0;orthogonalLoop=1;jettySize=auto;html=1;entryX=0.5;entryY=0;entryDx=0;entryDy=0;" edge="1" parent="1" source="UaTDb0YEhkHOUNa2XtW7-12" target="UaTDb0YEhkHOUNa2XtW7-11">
          <mxGeometry relative="1" as="geometry">
            <Array as="points">
              <mxPoint x="665" y="490" />
              <mxPoint x="810" y="490" />
              <mxPoint x="810" y="80" />
              <mxPoint x="665" y="80" />
            </Array>
          </mxGeometry>
        </mxCell>
        <mxCell id="UaTDb0YEhkHOUNa2XtW7-12" value="displayFunc()" style="rounded=0;whiteSpace=wrap;html=1;" vertex="1" parent="1">
          <mxGeometry x="600" y="400" width="120" height="60" as="geometry" />
        </mxCell>
        <mxCell id="UaTDb0YEhkHOUNa2XtW7-15" value="&lt;div&gt;Yes&lt;/div&gt;" style="edgeStyle=orthogonalEdgeStyle;rounded=0;orthogonalLoop=1;jettySize=auto;html=1;" edge="1" parent="1" source="UaTDb0YEhkHOUNa2XtW7-13" target="UaTDb0YEhkHOUNa2XtW7-12">
          <mxGeometry relative="1" as="geometry" />
        </mxCell>
        <mxCell id="UaTDb0YEhkHOUNa2XtW7-17" value="&lt;div&gt;No&lt;/div&gt;" style="edgeStyle=orthogonalEdgeStyle;rounded=0;orthogonalLoop=1;jettySize=auto;html=1;entryX=0.5;entryY=0;entryDx=0;entryDy=0;" edge="1" parent="1" source="UaTDb0YEhkHOUNa2XtW7-13" target="UaTDb0YEhkHOUNa2XtW7-11">
          <mxGeometry x="-0.9038" relative="1" as="geometry">
            <Array as="points">
              <mxPoint x="780" y="320" />
              <mxPoint x="780" y="20" />
              <mxPoint x="665" y="20" />
            </Array>
            <mxPoint as="offset" />
          </mxGeometry>
        </mxCell>
        <mxCell id="UaTDb0YEhkHOUNa2XtW7-13" value="REDISPLAY ?= 1" style="rhombus;whiteSpace=wrap;html=1;" vertex="1" parent="1">
          <mxGeometry x="605" y="280" width="120" height="80" as="geometry" />
        </mxCell>
        <mxCell id="UaTDb0YEhkHOUNa2XtW7-14" style="edgeStyle=orthogonalEdgeStyle;rounded=0;orthogonalLoop=1;jettySize=auto;html=1;entryX=0;entryY=0.5;entryDx=0;entryDy=0;" edge="1" parent="1" source="UaTDb0YEhkHOUNa2XtW7-7" target="UaTDb0YEhkHOUNa2XtW7-13">
          <mxGeometry relative="1" as="geometry" />
        </mxCell>
        <mxCell id="UaTDb0YEhkHOUNa2XtW7-19" value="handling triggered events..." style="rounded=0;whiteSpace=wrap;html=1;fillColor=#d5e8d4;strokeColor=#82b366;" vertex="1" parent="1">
          <mxGeometry x="605" y="170" width="120" height="60" as="geometry" />
        </mxCell>
      </root>
    </mxGraphModel>
  </diagram>
</mxfile>
